{"title":"SNITCH 2013 CAMRip Xvid READNFO-INFERNO","uid":8212189,"size":729488978,"categoryP":"video","categoryS":"movies","magnet":"?xt=urn:btih:32f072301f9e88b9ff1f1a812e8cf6ca6391e3c5&amp;dn=SNITCH+2013+CAMRip+Xvid+READNFO-INFERNO&amp;tr=udp%3A%2F%2Ftracker.openbittorrent.com%3A80&amp;tr=udp%3A%2F%2Fopen.demonii.com%3A1337&amp;tr=udp%3A%2F%2Ftracker.coppersurfer.tk%3A6969&amp;tr=udp%3A%2F%2Fexodus.desync.com%3A6969","seeders":1,"leechers":0,"uploader":"xxxlavalxxx","files":1,"time":1362261843,"description":" &lt;a href=&quot; http://bayimg.com/nAjNAAaep&quot; rel=&quot;nofollow&quot; target=&quot;_NEW&quot;&gt; http://bayimg.com/nAjNAAaep&lt;/a&gt;\n\n\n   &lt;a href=&quot;\nhttp://www.imdb.com/title/tt0882977/&quot; rel=&quot;nofollow&quot; target=&quot;_NEW&quot;&gt;\nhttp://www.imdb.com/title/tt0882977/&lt;/a&gt;\n\n\n\nPlot: A father goes undercover for the DEA in order to free his son who was imprisoned after being set up in drug deal. \n\n\n\nDirector:\n Ric Roman Waugh\n\nWriters:\n Justin Haythe, Ric Roman Waugh\n\nStars:\n Dwayne Johnson, Susan Sarandon, Jon Bernthal\n\nGenres:\n Action | Drama | Thriller \n\nCountry:\nUSA \n\n\n\nGeneral\nComplete name                            : RAT 2013 CAMRip Xvid-INF\nFormat                                   : AVI\nFormat/Info                              : Audio Video Interleave\nFile size                                : 696 MiB\nDuration                                 : 1h 45mn\nOverall bit rate mode                    : Variable\nOverall bit rate                         : 920 Kbps\nWriting application                      : VirtualDubMod 1.5.10.2 (build 2540/release)\nWriting library                          : VirtualDub build 32842/release\n\nVideo\nID                                       : 0\nFormat                                   : MPEG-4 Visual\nFormat profile                           : Advanced Simple@L5\nFormat settings, BVOP                    : 2\nFormat settings, QPel                    : No\nFormat settings, GMC                     : No warppoints\nFormat settings, Matrix                  : Default (H.263)\nMuxing mode                              : Packed bitstream\nCodec ID                                 : XVID\nCodec ID/Hint                            : XviD\nDuration                                 : 1h 45mn\nBit rate                                 : 775 Kbps\nWidth                                    : 628 pixels\nHeight                                   : 238 pixels\nDisplay aspect ratio                     : 2.639\nFrame rate                               : 23.976 fps\nColor space                              : YUV\nChroma subsampling                       : 4:2:0\nBit depth                                : 8 bits\nScan type                                : Progressive\nCompression mode                         : Lossy\nBits/(Pixel*Frame)                       : 0.216\nStream size                              : 586 MiB (84%)\nWriting library                          : XviD 64\n\nAudio\nID                                       : 1\nFormat                                   : MPEG Audio\nFormat version                           : Version 1\nFormat profile                           : Layer 3\nMode                                     : Joint stereo\nMode extension                           : MS Stereo\nCodec ID                                 : 55\nCodec ID/Hint                            : MP3\nDuration                                 : 1h 45mn\nBit rate mode                            : Variable\nBit rate                                 : 128 Kbps\nChannel(s)                               : 2 channels\nSampling rate                            : 48.0 KHz\nCompression mode                         : Lossy\nStream size                              : 100 MiB (14%)\nAlignment                                : Aligned on interleaves\nInterleave, duration                     : 24 ms (0.58 video frame)\nInterleave, preload duration             : 497 ms\nWriting library                          : LAME3.90.\nEncoding settings                        : -m j -V 4 -q 2 -lowpass 17.6 --abr 128\n\n\n &lt;a href=&quot;\nhttp://www.shotpix.com/images/54874695946208535993.png&quot; rel=&quot;nofollow&quot; target=&quot;_NEW&quot;&gt;\nhttp://www.shotpix.com/images/54874695946208535993.png&lt;/a&gt; &lt;a href=&quot;\nhttp://www.shotpix.com/images/59846493951158211724.png&quot; rel=&quot;nofollow&quot; target=&quot;_NEW&quot;&gt;\nhttp://www.shotpix.com/images/59846493951158211724.png&lt;/a&gt; &lt;a href=&quot;\nhttp://www.shotpix.com/images/62302838810964472035.png&quot; rel=&quot;nofollow&quot; target=&quot;_NEW&quot;&gt;\nhttp://www.shotpix.com/images/62302838810964472035.png&lt;/a&gt;\n","torrent":{"xt":"urn:btih:32f072301f9e88b9ff1f1a812e8cf6ca6391e3c5","amp;dn":"SNITCH+2013+CAMRip+Xvid+READNFO-INFERNO","amp;tr":["udp%3A%2F%2Ftracker.openbittorrent.com%3A80","udp%3A%2F%2Fopen.demonii.com%3A1337","udp%3A%2F%2Ftracker.coppersurfer.tk%3A6969","udp%3A%2F%2Fexodus.desync.com%3A6969"],"infoHash":"32f072301f9e88b9ff1f1a812e8cf6ca6391e3c5","infoHashBuffer":{"type":"Buffer","data":[50,240,114,48,31,158,136,185,255,31,26,129,46,140,246,202,99,145,227,197]},"announce":[],"urlList":[]}}